<svg xmlns="http://www.w3.org/2000/svg" viewBox="0 0 59.65 50.21"><title>LogoProgramacionRecurso 1</title><g id="Capa_2" data-name="Capa 2"><g id="Layer_1" data-name="Layer 1"><path d="M20.12,50.21a6.73,6.73,0,1,1,6.72-6.73A6.74,6.74,0,0,1,20.12,50.21Z"/><path d="M50.31,50.21A6.73,6.73,0,1,1,57,43.48,6.74,6.74,0,0,1,50.31,50.21Z"/><path d="M50.31,44.52H21.62a2.54,2.54,0,0,1-2.42-3.31l3.86-9.47a1,1,0,0,1,1.35-.56A1,1,0,0,1,25,32.53l-3.83,9.39a.5.5,0,0,0,.09.34.47.47,0,0,0,.38.19H50.31a1,1,0,1,1,0,2.07Z"/><path d="M59.16,6.82a2.54,2.54,0,0,0-2-1H13.9l-2-4.65a1,1,0,0,0-.95-.62H1.32a1,1,0,1,0,0,2.07h8.92l12.68,29a2.51,2.51,0,0,0,2.32,1.53H50.07a2.53,2.53,0,0,0,2.42-1.77l7-22.32A2.54,2.54,0,0,0,59.16,6.82ZM48,27.17H26.75a1,1,0,0,1,0-2.07H48a1,1,0,0,1,0,2.07Zm1.81-6.55H25a1,1,0,1,1,0-2.07H49.77a1,1,0,0,1,0,2.07Zm1.48-6.54H23.46a1,1,0,1,1,0-2.08H51.25a1,1,0,0,1,0,2.08Z"/><path d="M3.27,1.64A1.64,1.64,0,1,1,1.63,0,1.63,1.63,0,0,1,3.27,1.64Z"/></g></g></svg>